<mxfile host="app.diagrams.net" modified="2023-09-04T19:48:26.461Z" agent="Mozilla/5.0 (Windows NT 10.0; Win64; x64) AppleWebKit/537.36 (KHTML, like Gecko) Chrome/116.0.0.0 Safari/537.36" version="21.6.8" etag="VRx0GMvEuhGScVif2nqR" type="github">
  <diagram name="PÃ¡gina-1" id="O4zvaLd67gEID14LUzoi">
    <mxGraphModel>
      <root>
        <mxCell id="0" />
        <mxCell id="1" parent="0" />
      </root>
    </mxGraphModel>
  </diagram>
</mxfile>
